<mxfile host="app.diagrams.net" modified="2023-09-25T12:04:55.685Z" agent="Mozilla/5.0 (Windows NT 10.0; Win64; x64) AppleWebKit/537.36 (KHTML, like Gecko) Chrome/116.0.0.0 Safari/537.36" etag="1J2gwETYmDBdD3MKvZWb" version="21.8.2" type="github">
  <diagram name="Page-1" id="ksd6yEclr_CNuHs9PnJI">
    <mxGraphModel dx="819" dy="451" grid="1" gridSize="10" guides="1" tooltips="1" connect="1" arrows="1" fold="1" page="1" pageScale="1" pageWidth="827" pageHeight="1169" math="0" shadow="0">
      <root>
        <mxCell id="0" />
        <mxCell id="1" parent="0" />
        <mxCell id="jF4vMIIaupyfPtniEKmE-7" style="edgeStyle=orthogonalEdgeStyle;rounded=0;orthogonalLoop=1;jettySize=auto;html=1;entryX=0.5;entryY=0;entryDx=0;entryDy=0;" edge="1" parent="1" source="jF4vMIIaupyfPtniEKmE-2" target="jF4vMIIaupyfPtniEKmE-3">
          <mxGeometry relative="1" as="geometry" />
        </mxCell>
        <mxCell id="jF4vMIIaupyfPtniEKmE-8" style="edgeStyle=orthogonalEdgeStyle;rounded=0;orthogonalLoop=1;jettySize=auto;html=1;" edge="1" parent="1" source="jF4vMIIaupyfPtniEKmE-2" target="jF4vMIIaupyfPtniEKmE-4">
          <mxGeometry relative="1" as="geometry" />
        </mxCell>
        <mxCell id="jF4vMIIaupyfPtniEKmE-9" style="edgeStyle=orthogonalEdgeStyle;rounded=0;orthogonalLoop=1;jettySize=auto;html=1;" edge="1" parent="1" source="jF4vMIIaupyfPtniEKmE-2" target="jF4vMIIaupyfPtniEKmE-5">
          <mxGeometry relative="1" as="geometry" />
        </mxCell>
        <mxCell id="jF4vMIIaupyfPtniEKmE-2" value="ACCSusbsytem" style="rounded=0;whiteSpace=wrap;html=1;" vertex="1" parent="1">
          <mxGeometry x="280" y="200" width="120" height="60" as="geometry" />
        </mxCell>
        <mxCell id="jF4vMIIaupyfPtniEKmE-3" value="GameData" style="rounded=0;whiteSpace=wrap;html=1;" vertex="1" parent="1">
          <mxGeometry x="120" y="390" width="120" height="60" as="geometry" />
        </mxCell>
        <mxCell id="jF4vMIIaupyfPtniEKmE-4" value="ParamHandlerMgr" style="rounded=0;whiteSpace=wrap;html=1;" vertex="1" parent="1">
          <mxGeometry x="280" y="390" width="120" height="60" as="geometry" />
        </mxCell>
        <mxCell id="jF4vMIIaupyfPtniEKmE-5" value="OwnedManagers" style="rounded=0;whiteSpace=wrap;html=1;" vertex="1" parent="1">
          <mxGeometry x="470" y="390" width="120" height="60" as="geometry" />
        </mxCell>
      </root>
    </mxGraphModel>
  </diagram>
</mxfile>
